# MagicaVoxel @ Ephtracy

# material
mtllib Merchant.mtl
usemtl palette

# normals
vn -1 0 0
vn 1 0 0
vn 0 0 1
vn 0 0 -1
vn 0 -1 0
vn 0 1 0

# texcoords
vt 0.0644531 0.5
vt 0.306641 0.5
vt 0.412109 0.5
vt 0.630859 0.5
vt 0.642578 0.5
vt 0.720703 0.5
vt 0.724609 0.5

# verts
v -10 0 5
v -10 0 -1
v -10 10 5
v -10 10 -1
v -8 10 2
v -8 10 -0
v -8 12 2
v -8 12 -0
v -5 0 -2
v -5 0 -8
v -5 11 -2
v -5 11 -8
v -5 17 -1
v -5 17 -9
v -5 18 -1
v -5 18 -9
v -4 11 -2
v -4 11 -8
v -4 17 -2
v -4 17 -8
v -3 18 -3
v -3 18 -7
v -3 19 -3
v -3 19 -7
v -2 19 -4
v -2 19 -6
v -2 20 -4
v -2 20 -6
v 4 10 1
v 4 10 -1
v 4 12 1
v 4 12 -1
v 7 10 3
v 7 10 1
v 7 12 3
v 7 12 1
v 8 0 5
v 8 0 4
v 8 0 -0
v 8 0 -1
v 8 8 5
v 8 8 4
v 8 8 -0
v 8 8 -1
v -8 0 5
v -8 0 4
v -8 0 -0
v -8 0 -1
v -8 8 5
v -8 8 4
v -8 8 -0
v -8 8 -1
v -6 10 2
v -6 10 -0
v -6 12 2
v -6 12 -0
v 1 19 -4
v 1 19 -6
v 1 20 -4
v 1 20 -6
v 2 18 -3
v 2 18 -7
v 2 19 -3
v 2 19 -7
v 3 11 -2
v 3 11 -8
v 3 17 -2
v 3 17 -8
v 4 0 -2
v 4 0 -8
v 4 11 -2
v 4 11 -8
v 4 17 -1
v 4 17 -9
v 4 18 -1
v 4 18 -9
v 6 10 1
v 6 10 -1
v 6 12 1
v 6 12 -1
v 9 10 3
v 9 10 1
v 9 12 3
v 9 12 1
v 10 0 5
v 10 0 -1
v 10 10 5
v 10 10 -1
v -10 0 5
v -10 10 5
v -8 0 5
v -8 8 5
v 8 0 5
v 8 8 5
v 10 0 5
v 10 10 5
v -8 0 4
v -8 8 4
v 8 0 4
v 8 8 4
v 7 10 3
v 7 12 3
v 9 10 3
v 9 12 3
v -8 10 2
v -8 12 2
v -6 10 2
v -6 12 2
v 4 10 1
v 4 12 1
v 6 10 1
v 6 12 1
v -5 17 -1
v -5 18 -1
v 4 17 -1
v 4 18 -1
v -5 0 -2
v -5 11 -2
v -4 11 -2
v -4 17 -2
v 3 11 -2
v 3 17 -2
v 4 0 -2
v 4 11 -2
v -3 18 -3
v -3 19 -3
v 2 18 -3
v 2 19 -3
v -2 19 -4
v -2 20 -4
v 1 19 -4
v 1 20 -4
v 7 10 1
v 7 12 1
v 9 10 1
v 9 12 1
v -8 0 -0
v -8 8 -0
v -8 10 -0
v -8 12 -0
v -6 10 -0
v -6 12 -0
v 8 0 -0
v 8 8 -0
v -10 0 -1
v -10 10 -1
v -8 0 -1
v -8 8 -1
v 4 10 -1
v 4 12 -1
v 6 10 -1
v 6 12 -1
v 8 0 -1
v 8 8 -1
v 10 0 -1
v 10 10 -1
v -2 19 -6
v -2 20 -6
v 1 19 -6
v 1 20 -6
v -3 18 -7
v -3 19 -7
v 2 18 -7
v 2 19 -7
v -5 0 -8
v -5 11 -8
v -4 11 -8
v -4 17 -8
v 3 11 -8
v 3 17 -8
v 4 0 -8
v 4 11 -8
v -5 17 -9
v -5 18 -9
v 4 17 -9
v 4 18 -9
v -10 0 5
v -8 0 5
v 8 0 5
v 10 0 5
v -8 0 4
v 8 0 4
v -8 0 3
v 8 0 3
v -8 0 -0
v 8 0 -0
v -10 0 -1
v -8 0 -1
v 8 0 -1
v 10 0 -1
v -5 0 -2
v 4 0 -2
v -4 0 -3
v 3 0 -3
v -4 0 -7
v 3 0 -7
v -5 0 -8
v 4 0 -8
v -8 8 5
v 8 8 5
v -8 8 4
v 8 8 4
v -8 8 -0
v 8 8 -0
v -8 8 -1
v 8 8 -1
v -5 17 -1
v 4 17 -1
v -4 17 -2
v 3 17 -2
v -4 17 -8
v 3 17 -8
v -5 17 -9
v 4 17 -9
v -10 10 5
v 10 10 5
v 7 10 3
v 9 10 3
v -8 10 2
v -6 10 2
v 4 10 1
v 6 10 1
v 7 10 1
v 9 10 1
v -8 10 -0
v -6 10 -0
v -10 10 -1
v 4 10 -1
v 6 10 -1
v 10 10 -1
v -5 11 -2
v -4 11 -2
v 3 11 -2
v 4 11 -2
v -5 11 -8
v -4 11 -8
v 3 11 -8
v 4 11 -8
v 7 12 3
v 9 12 3
v -8 12 2
v -6 12 2
v 4 12 1
v 6 12 1
v 7 12 1
v 9 12 1
v -8 12 -0
v -6 12 -0
v 4 12 -1
v 6 12 -1
v -5 18 -1
v 4 18 -1
v -3 18 -3
v 2 18 -3
v -3 18 -7
v 2 18 -7
v -5 18 -9
v 4 18 -9
v -3 19 -3
v 2 19 -3
v -2 19 -4
v 1 19 -4
v -2 19 -6
v 1 19 -6
v -3 19 -7
v 2 19 -7
v -2 20 -4
v 1 20 -4
v -2 20 -6
v 1 20 -6

# faces
f 3/7/1 2/7/1 1/7/1
f 4/7/1 2/7/1 3/7/1
f 7/1/1 6/1/1 5/1/1
f 8/1/1 6/1/1 7/1/1
f 11/4/1 10/4/1 9/4/1
f 12/4/1 10/4/1 11/4/1
f 15/5/1 14/5/1 13/5/1
f 16/5/1 14/5/1 15/5/1
f 19/3/1 18/3/1 17/3/1
f 20/3/1 18/3/1 19/3/1
f 23/5/1 22/5/1 21/5/1
f 24/5/1 22/5/1 23/5/1
f 27/5/1 26/5/1 25/5/1
f 28/5/1 26/5/1 27/5/1
f 31/1/1 30/1/1 29/1/1
f 32/1/1 30/1/1 31/1/1
f 35/1/1 34/1/1 33/1/1
f 36/1/1 34/1/1 35/1/1
f 41/7/1 38/7/1 37/7/1
f 42/7/1 38/7/1 41/7/1
f 43/7/1 40/7/1 39/7/1
f 44/7/1 40/7/1 43/7/1
f 45/7/2 46/7/2 49/7/2
f 49/7/2 46/7/2 50/7/2
f 47/7/2 48/7/2 51/7/2
f 51/7/2 48/7/2 52/7/2
f 53/1/2 54/1/2 55/1/2
f 55/1/2 54/1/2 56/1/2
f 57/5/2 58/5/2 59/5/2
f 59/5/2 58/5/2 60/5/2
f 61/5/2 62/5/2 63/5/2
f 63/5/2 62/5/2 64/5/2
f 65/3/2 66/3/2 67/3/2
f 67/3/2 66/3/2 68/3/2
f 69/4/2 70/4/2 71/4/2
f 71/4/2 70/4/2 72/4/2
f 73/5/2 74/5/2 75/5/2
f 75/5/2 74/5/2 76/5/2
f 77/1/2 78/1/2 79/1/2
f 79/1/2 78/1/2 80/1/2
f 81/1/2 82/1/2 83/1/2
f 83/1/2 82/1/2 84/1/2
f 85/7/2 86/7/2 87/7/2
f 87/7/2 86/7/2 88/7/2
f 91/7/3 90/7/3 89/7/3
f 92/7/3 90/7/3 91/7/3
f 94/7/3 90/7/3 92/7/3
f 95/7/3 94/7/3 93/7/3
f 96/7/3 90/7/3 94/7/3
f 96/7/3 94/7/3 95/7/3
f 99/6/3 98/6/3 97/6/3
f 100/6/3 98/6/3 99/6/3
f 103/1/3 102/1/3 101/1/3
f 104/1/3 102/1/3 103/1/3
f 107/1/3 106/1/3 105/1/3
f 108/1/3 106/1/3 107/1/3
f 111/1/3 110/1/3 109/1/3
f 112/1/3 110/1/3 111/1/3
f 115/5/3 114/5/3 113/5/3
f 116/5/3 114/5/3 115/5/3
f 119/4/3 118/4/3 117/4/3
f 121/4/3 119/4/3 117/4/3
f 121/3/3 120/3/3 119/3/3
f 122/3/3 120/3/3 121/3/3
f 123/4/3 121/4/3 117/4/3
f 124/4/3 121/4/3 123/4/3
f 127/5/3 126/5/3 125/5/3
f 128/5/3 126/5/3 127/5/3
f 131/5/3 130/5/3 129/5/3
f 132/5/3 130/5/3 131/5/3
f 133/1/4 134/1/4 135/1/4
f 135/1/4 134/1/4 136/1/4
f 139/1/4 140/1/4 141/1/4
f 141/1/4 140/1/4 142/1/4
f 137/7/4 138/7/4 143/7/4
f 143/7/4 138/7/4 144/7/4
f 145/7/4 146/7/4 147/7/4
f 147/7/4 146/7/4 148/7/4
f 148/7/4 146/7/4 149/7/4
f 148/7/4 149/7/4 151/7/4
f 149/1/4 150/1/4 151/1/4
f 151/1/4 150/1/4 152/1/4
f 148/7/4 151/7/4 154/7/4
f 153/7/4 154/7/4 155/7/4
f 154/7/4 151/7/4 156/7/4
f 155/7/4 154/7/4 156/7/4
f 157/5/4 158/5/4 159/5/4
f 159/5/4 158/5/4 160/5/4
f 161/5/4 162/5/4 163/5/4
f 163/5/4 162/5/4 164/5/4
f 165/4/4 166/4/4 167/4/4
f 165/4/4 167/4/4 169/4/4
f 167/3/4 168/3/4 169/3/4
f 169/3/4 168/3/4 170/3/4
f 165/4/4 169/4/4 171/4/4
f 171/4/4 169/4/4 172/4/4
f 173/5/4 174/5/4 175/5/4
f 175/5/4 174/5/4 176/5/4
f 181/7/5 178/7/5 177/7/5
f 182/7/5 180/7/5 179/7/5
f 183/7/5 181/7/5 177/7/5
f 183/6/5 182/6/5 181/6/5
f 184/7/5 180/7/5 182/7/5
f 184/6/5 182/6/5 183/6/5
f 185/7/5 183/7/5 177/7/5
f 185/7/5 184/7/5 183/7/5
f 186/7/5 180/7/5 184/7/5
f 186/7/5 184/7/5 185/7/5
f 187/7/5 185/7/5 177/7/5
f 188/7/5 185/7/5 187/7/5
f 189/7/5 180/7/5 186/7/5
f 190/7/5 180/7/5 189/7/5
f 193/4/5 192/4/5 191/4/5
f 194/4/5 192/4/5 193/4/5
f 195/4/5 193/4/5 191/4/5
f 195/2/5 194/2/5 193/2/5
f 196/4/5 192/4/5 194/4/5
f 196/2/5 194/2/5 195/2/5
f 197/4/5 195/4/5 191/4/5
f 197/4/5 196/4/5 195/4/5
f 198/4/5 192/4/5 196/4/5
f 198/4/5 196/4/5 197/4/5
f 201/7/5 200/7/5 199/7/5
f 202/7/5 200/7/5 201/7/5
f 205/7/5 204/7/5 203/7/5
f 206/7/5 204/7/5 205/7/5
f 209/5/5 208/5/5 207/5/5
f 210/5/5 208/5/5 209/5/5
f 211/5/5 209/5/5 207/5/5
f 212/5/5 208/5/5 210/5/5
f 213/5/5 211/5/5 207/5/5
f 213/5/5 212/5/5 211/5/5
f 214/5/5 208/5/5 212/5/5
f 214/5/5 212/5/5 213/5/5
f 215/7/6 216/7/6 217/7/6
f 217/7/6 216/7/6 218/7/6
f 215/7/6 217/7/6 219/7/6
f 219/7/6 217/7/6 220/7/6
f 220/7/6 217/7/6 221/7/6
f 221/7/6 217/7/6 222/7/6
f 222/7/6 217/7/6 223/7/6
f 218/7/6 216/7/6 224/7/6
f 215/7/6 219/7/6 225/7/6
f 220/7/6 221/7/6 226/7/6
f 215/7/6 225/7/6 227/7/6
f 225/7/6 226/7/6 227/7/6
f 226/7/6 221/7/6 228/7/6
f 227/7/6 226/7/6 228/7/6
f 222/7/6 223/7/6 229/7/6
f 223/7/6 224/7/6 229/7/6
f 224/7/6 216/7/6 230/7/6
f 229/7/6 224/7/6 230/7/6
f 231/4/6 232/4/6 235/4/6
f 235/4/6 232/4/6 236/4/6
f 233/4/6 234/4/6 237/4/6
f 237/4/6 234/4/6 238/4/6
f 239/1/6 240/1/6 245/1/6
f 245/1/6 240/1/6 246/1/6
f 241/1/6 242/1/6 247/1/6
f 247/1/6 242/1/6 248/1/6
f 243/1/6 244/1/6 249/1/6
f 249/1/6 244/1/6 250/1/6
f 251/5/6 252/5/6 253/5/6
f 253/5/6 252/5/6 254/5/6
f 251/5/6 253/5/6 255/5/6
f 254/5/6 252/5/6 256/5/6
f 251/5/6 255/5/6 257/5/6
f 255/5/6 256/5/6 257/5/6
f 256/5/6 252/5/6 258/5/6
f 257/5/6 256/5/6 258/5/6
f 259/5/6 260/5/6 261/5/6
f 261/5/6 260/5/6 262/5/6
f 259/5/6 261/5/6 263/5/6
f 262/5/6 260/5/6 264/5/6
f 259/5/6 263/5/6 265/5/6
f 263/5/6 264/5/6 265/5/6
f 264/5/6 260/5/6 266/5/6
f 265/5/6 264/5/6 266/5/6
f 267/5/6 268/5/6 269/5/6
f 269/5/6 268/5/6 270/5/6
