# MagicaVoxel @ Ephtracy

# material
mtllib NewDoor2.mtl
usemtl palette

# normals
vn -1 0 0
vn 1 0 0
vn 0 0 1
vn 0 0 -1
vn 0 -1 0
vn 0 1 0

# texcoords
vt 0.759766 0.5
vt 0.767578 0.5
vt 0.779297 0.5

# verts
v -4 0 4
v -4 0 3
v -4 0 -3
v -4 0 -4
v -4 8 4
v -4 8 3
v -4 8 -3
v -4 8 -4
v -4 9 3
v -4 9 -3
v -3 0 3
v -3 0 -3
v -3 8 4
v -3 8 3
v -3 8 -3
v -3 8 -4
v -3 9 4
v -3 9 3
v -3 9 -3
v -3 9 -4
v -3 10 3
v -3 10 -3
v 3 0 4
v 3 0 3
v 3 0 -3
v 3 0 -4
v 3 8 4
v 3 8 3
v 3 8 -3
v 3 8 -4
v -3 0 4
v -3 0 3
v -3 0 -3
v -3 0 -4
v -3 8 4
v -3 8 3
v -3 8 -3
v -3 8 -4
v 3 0 3
v 3 0 -3
v 3 8 4
v 3 8 3
v 3 8 -3
v 3 8 -4
v 3 9 4
v 3 9 3
v 3 9 -3
v 3 9 -4
v 3 10 3
v 3 10 -3
v 4 0 4
v 4 0 3
v 4 0 -3
v 4 0 -4
v 4 8 4
v 4 8 3
v 4 8 -3
v 4 8 -4
v 4 9 3
v 4 9 -3
v -4 0 4
v -4 8 4
v -3 0 4
v -3 8 4
v -3 9 4
v 3 0 4
v 3 8 4
v 3 9 4
v 4 0 4
v 4 8 4
v -4 8 3
v -4 9 3
v -3 0 3
v -3 8 3
v -3 9 3
v -3 10 3
v 3 0 3
v 3 8 3
v 3 9 3
v 3 10 3
v 4 8 3
v 4 9 3
v -4 0 -3
v -4 8 -3
v -3 0 -3
v -3 8 -3
v 3 0 -3
v 3 8 -3
v 4 0 -3
v 4 8 -3
v -4 0 3
v -4 8 3
v -3 0 3
v -3 8 3
v 3 0 3
v 3 8 3
v 4 0 3
v 4 8 3
v -4 8 -3
v -4 9 -3
v -3 0 -3
v -3 8 -3
v -3 9 -3
v -3 10 -3
v 3 0 -3
v 3 8 -3
v 3 9 -3
v 3 10 -3
v 4 8 -3
v 4 9 -3
v -4 0 -4
v -4 8 -4
v -3 0 -4
v -3 8 -4
v -3 9 -4
v 3 0 -4
v 3 8 -4
v 3 9 -4
v 4 0 -4
v 4 8 -4
v -4 0 4
v -3 0 4
v 3 0 4
v 4 0 4
v -4 0 3
v -3 0 3
v 3 0 3
v 4 0 3
v -4 0 -3
v -3 0 -3
v 3 0 -3
v 4 0 -3
v -4 0 -4
v -3 0 -4
v 3 0 -4
v 4 0 -4
v -3 8 4
v 3 8 4
v -4 8 3
v -3 8 3
v 3 8 3
v 4 8 3
v -4 8 -3
v -3 8 -3
v 3 8 -3
v 4 8 -3
v -3 8 -4
v 3 8 -4
v -4 8 4
v -3 8 4
v 3 8 4
v 4 8 4
v -4 8 3
v -3 8 3
v 3 8 3
v 4 8 3
v -4 8 -3
v -3 8 -3
v 3 8 -3
v 4 8 -3
v -4 8 -4
v -3 8 -4
v 3 8 -4
v 4 8 -4
v -3 9 4
v 3 9 4
v -4 9 3
v -3 9 3
v 3 9 3
v 4 9 3
v -4 9 -3
v -3 9 -3
v 3 9 -3
v 4 9 -3
v -3 9 -4
v 3 9 -4
v -3 10 3
v 3 10 3
v -3 10 -3
v 3 10 -3

# faces
f 5/2/1 2/2/1 1/2/1
f 6/2/1 2/2/1 5/2/1
f 7/2/1 4/2/1 3/2/1
f 8/2/1 4/2/1 7/2/1
f 9/1/1 7/1/1 6/1/1
f 10/1/1 7/1/1 9/1/1
f 14/3/1 12/3/1 11/3/1
f 15/3/1 12/3/1 14/3/1
f 17/1/1 14/1/1 13/1/1
f 18/1/1 14/1/1 17/1/1
f 19/1/1 16/1/1 15/1/1
f 20/1/1 16/1/1 19/1/1
f 21/1/1 19/1/1 18/1/1
f 22/1/1 19/1/1 21/1/1
f 27/2/1 24/2/1 23/2/1
f 28/2/1 24/2/1 27/2/1
f 29/2/1 26/2/1 25/2/1
f 30/2/1 26/2/1 29/2/1
f 31/2/2 32/2/2 35/2/2
f 35/2/2 32/2/2 36/2/2
f 33/2/2 34/2/2 37/2/2
f 37/2/2 34/2/2 38/2/2
f 39/3/2 40/3/2 42/3/2
f 42/3/2 40/3/2 43/3/2
f 41/1/2 42/1/2 45/1/2
f 45/1/2 42/1/2 46/1/2
f 43/1/2 44/1/2 47/1/2
f 47/1/2 44/1/2 48/1/2
f 46/1/2 47/1/2 49/1/2
f 49/1/2 47/1/2 50/1/2
f 51/2/2 52/2/2 55/2/2
f 55/2/2 52/2/2 56/2/2
f 53/2/2 54/2/2 57/2/2
f 57/2/2 54/2/2 58/2/2
f 56/1/2 57/1/2 59/1/2
f 59/1/2 57/1/2 60/1/2
f 63/2/3 62/2/3 61/2/3
f 64/2/3 62/2/3 63/2/3
f 67/1/3 65/1/3 64/1/3
f 68/1/3 65/1/3 67/1/3
f 69/2/3 67/2/3 66/2/3
f 70/2/3 67/2/3 69/2/3
f 74/1/3 72/1/3 71/1/3
f 75/1/3 72/1/3 74/1/3
f 77/3/3 74/3/3 73/3/3
f 78/3/3 74/3/3 77/3/3
f 79/1/3 76/1/3 75/1/3
f 80/1/3 76/1/3 79/1/3
f 81/1/3 79/1/3 78/1/3
f 82/1/3 79/1/3 81/1/3
f 85/2/3 84/2/3 83/2/3
f 86/2/3 84/2/3 85/2/3
f 89/2/3 88/2/3 87/2/3
f 90/2/3 88/2/3 89/2/3
f 91/2/4 92/2/4 93/2/4
f 93/2/4 92/2/4 94/2/4
f 95/2/4 96/2/4 97/2/4
f 97/2/4 96/2/4 98/2/4
f 99/1/4 100/1/4 102/1/4
f 102/1/4 100/1/4 103/1/4
f 101/3/4 102/3/4 105/3/4
f 105/3/4 102/3/4 106/3/4
f 103/1/4 104/1/4 107/1/4
f 107/1/4 104/1/4 108/1/4
f 106/1/4 107/1/4 109/1/4
f 109/1/4 107/1/4 110/1/4
f 111/2/4 112/2/4 113/2/4
f 113/2/4 112/2/4 114/2/4
f 114/1/4 115/1/4 117/1/4
f 117/1/4 115/1/4 118/1/4
f 116/2/4 117/2/4 119/2/4
f 119/2/4 117/2/4 120/2/4
f 125/2/5 122/2/5 121/2/5
f 126/2/5 122/2/5 125/2/5
f 127/2/5 124/2/5 123/2/5
f 128/2/5 124/2/5 127/2/5
f 130/3/5 127/3/5 126/3/5
f 131/3/5 127/3/5 130/3/5
f 133/2/5 130/2/5 129/2/5
f 134/2/5 130/2/5 133/2/5
f 135/2/5 132/2/5 131/2/5
f 136/2/5 132/2/5 135/2/5
f 140/1/5 138/1/5 137/1/5
f 141/1/5 138/1/5 140/1/5
f 143/1/5 140/1/5 139/1/5
f 144/1/5 140/1/5 143/1/5
f 145/1/5 142/1/5 141/1/5
f 146/1/5 142/1/5 145/1/5
f 147/1/5 145/1/5 144/1/5
f 148/1/5 145/1/5 147/1/5
f 149/2/6 150/2/6 153/2/6
f 153/2/6 150/2/6 154/2/6
f 151/2/6 152/2/6 155/2/6
f 155/2/6 152/2/6 156/2/6
f 157/2/6 158/2/6 161/2/6
f 161/2/6 158/2/6 162/2/6
f 159/2/6 160/2/6 163/2/6
f 163/2/6 160/2/6 164/2/6
f 165/1/6 166/1/6 168/1/6
f 168/1/6 166/1/6 169/1/6
f 167/1/6 168/1/6 171/1/6
f 171/1/6 168/1/6 172/1/6
f 169/1/6 170/1/6 173/1/6
f 173/1/6 170/1/6 174/1/6
f 172/1/6 173/1/6 175/1/6
f 175/1/6 173/1/6 176/1/6
f 177/1/6 178/1/6 179/1/6
f 179/1/6 178/1/6 180/1/6
